<?xml version="1.0" standalone="no"?>
<!DOCTYPE svg PUBLIC "-//W3C//DTD SVG 20010904//EN"
 "http://www.w3.org/TR/2001/REC-SVG-20010904/DTD/svg10.dtd">
<svg version="1.0" xmlns="http://www.w3.org/2000/svg"
 width="300.000000pt" height="225.000000pt" viewBox="0 0 300.000000 225.000000"
 preserveAspectRatio="xMidYMid meet">
<metadata>
Created by potrace 1.10, written by Peter Selinger 2001-2011
</metadata>
<g transform="translate(0.000000,225.000000) scale(0.100000,-0.100000)"
fill="#000000" stroke="none">
<path d="M404 1327 c-30 -16 -34 -27 -34 -109 0 -67 3 -80 22 -98 21 -19 31
-20 162 -15 78 3 152 5 166 5 14 0 85 0 158 -1 81 0 138 4 146 10 10 8 21 7
42 -4 16 -8 23 -15 15 -15 -16 0 -48 -34 -56 -61 -9 -29 12 -59 43 -60 15 0
84 -1 153 -2 104 -2 128 -5 143 -19 24 -24 41 -22 60 7 20 30 20 35 2 35 -8 0
-16 -10 -18 -22 -4 -28 -28 -36 -28 -9 0 23 0 23 -158 23 -90 0 -110 6 -96 29
4 8 9 7 15 -2 8 -12 10 -12 18 0 11 16 34 5 24 -12 -4 -8 -1 -7 9 1 12 10 17
10 20 1 3 -8 9 -7 20 5 19 18 53 22 42 5 -4 -8 0 -8 15 0 13 7 21 8 21 2 0 -6
7 -7 17 -4 12 5 14 3 8 -7 -5 -9 -4 -11 4 -6 8 5 9 12 2 19 -6 9 -2 12 15 13
26 2 30 -6 12 -24 -9 -9 -9 -12 0 -12 7 0 15 7 18 15 5 11 11 12 24 5 13 -7
21 -7 25 0 12 19 -47 30 -128 24 -115 -8 -172 -5 -204 11 -25 13 -29 13 -40
-2 -15 -20 -16 -23 -3 -43 8 -12 11 -12 28 3 24 22 28 21 28 -2 0 -15 -7 -19
-36 -17 -31 1 -35 5 -38 29 -3 22 5 36 34 63 26 23 44 32 54 27 8 -4 101 -6
205 -4 105 2 206 2 225 1 19 -1 50 -1 68 -1 17 1 47 1 65 1 140 -1 209 3 225
13 7 5 18 4 25 -1 16 -13 129 -12 145 0 8 7 17 7 26 -1 8 -7 29 -12 47 -12 19
1 54 -2 79 -5 25 -3 56 -1 69 4 16 5 37 5 58 -1 26 -8 41 -7 68 6 31 15 36 15
66 0 29 -14 36 -14 58 -2 21 12 27 23 29 61 2 30 10 52 23 63 25 23 24 57 -2
81 -21 19 -78 22 -254 14 -40 -2 -188 -2 -235 -1 -14 1 -52 0 -85 0 -33 -1
-70 -1 -82 -1 -13 1 -36 1 -53 1 -16 0 -41 0 -55 1 -43 0 -156 0 -220 -2 -22
0 -53 0 -70 0 -16 1 -47 2 -67 2 -21 1 -46 -3 -55 -9 -12 -6 -26 -5 -44 4 -20
11 -58 13 -165 8 -76 -3 -152 -5 -169 -4 -16 1 -40 2 -52 1 -46 -1 -79 0 -123
4 -29 2 -55 -2 -73 -13 -22 -13 -31 -13 -47 -3 -25 15 -45 15 -70 0 -14 -9
-24 -9 -42 -1 -45 22 -98 25 -125 8 -19 -13 -31 -15 -47 -7 -38 18 -52 20 -72
9z m64 -34 c-15 -4 -18 -16 -18 -69 0 -68 12 -81 45 -48 20 20 26 15 18 -14
-5 -20 -12 -22 -67 -21 -33 0 -55 3 -48 6 17 7 17 139 0 146 -7 3 10 5 37 5
28 0 42 -2 33 -5z m172 -18 c0 -14 -4 -25 -10 -25 -5 0 -10 4 -10 8 0 5 -11
14 -25 20 -24 11 -25 10 -25 -18 0 -26 4 -30 28 -31 l27 -2 -27 -4 c-24 -4
-28 -9 -28 -39 0 -39 7 -42 44 -13 l26 20 0 -25 c0 -25 -2 -26 -57 -26 l-58 0
0 80 0 80 58 0 c54 0 57 -1 57 -25z m128 -55 l30 -80 -32 0 c-27 0 -32 4 -32
23 1 16 -5 23 -23 25 -21 3 -23 0 -19 -22 4 -22 2 -26 -17 -26 l-23 0 25 68
c13 37 26 73 28 80 11 31 34 7 63 -68z m160 68 c18 -18 15 -56 -5 -66 -15 -9
-14 -13 11 -46 l27 -36 -29 0 c-23 0 -32 7 -46 37 -16 33 -16 37 -2 45 23 13
20 45 -5 58 -20 11 -21 10 -17 -64 3 -75 3 -76 -22 -76 -25 0 -25 1 -25 80 l0
80 51 0 c27 0 55 -5 62 -12z m132 -38 c18 -27 33 -50 35 -50 8 0 -9 86 -19 92
-6 4 0 8 14 8 25 0 25 0 22 -80 -4 -103 -21 -106 -76 -15 -21 36 -39 65 -40
65 -8 0 9 -116 18 -122 6 -5 0 -8 -14 -8 -25 0 -25 1 -25 80 0 80 0 80 26 80
21 0 34 -11 59 -50z m190 23 c0 -16 -4 -23 -8 -17 -4 6 -17 16 -29 23 -21 11
-23 10 -23 -19 0 -23 4 -30 20 -30 11 0 20 -4 20 -9 0 -5 -9 -7 -20 -4 -17 5
-20 0 -20 -31 0 -34 1 -35 25 -24 14 6 25 15 25 20 0 4 5 8 10 8 6 0 10 -11
10 -25 0 -24 -3 -25 -57 -25 l-58 0 0 80 0 80 53 0 c50 0 52 -1 52 -27z m138
15 c18 -18 15 -56 -5 -66 -15 -9 -14 -13 11 -46 l27 -36 -29 0 c-23 0 -32 7
-46 37 -16 33 -16 37 -2 45 19 11 21 39 4 56 -24 24 -30 11 -26 -63 3 -74 3
-75 -22 -75 -25 0 -25 1 -25 80 l0 80 51 0 c27 0 55 -5 62 -12z m142 2 c12 -8
13 -11 2 -22 -11 -11 -16 -9 -28 6 -11 16 -16 17 -27 7 -10 -10 -4 -19 26 -45
46 -39 48 -75 6 -90 -36 -12 -81 0 -77 21 5 25 25 27 33 4 8 -25 23 -27 32 -5
4 11 -1 22 -13 31 -59 42 -66 59 -38 87 17 18 61 21 84 6z m144 -3 c17 -12 17
-14 0 -28 -10 -8 -19 -10 -21 -4 -9 25 -22 37 -32 30 -22 -13 -31 -53 -19 -86
10 -30 13 -31 52 -26 l41 6 -24 -20 c-53 -44 -116 -10 -116 63 0 30 6 45 24
59 27 22 69 25 95 6z m148 -4 c24 -29 29 -54 17 -90 -12 -38 -34 -53 -78 -53
-33 0 -71 39 -71 72 0 25 26 75 42 81 29 12 76 6 90 -10z m129 -34 c17 -27 33
-48 35 -46 2 2 0 25 -5 50 -8 46 -8 47 18 46 14 0 20 -3 14 -6 -9 -3 -13 -29
-13 -79 0 -64 -2 -74 -17 -74 -11 0 -31 23 -53 61 l-35 61 -3 -47 c-2 -26 2
-53 9 -61 9 -11 7 -14 -12 -14 -23 0 -24 2 -24 80 l0 80 28 0 c22 0 33 -10 58
-51z m170 1 c17 -27 33 -50 35 -50 9 0 -10 85 -20 92 -6 4 5 7 24 7 19 0 29
-3 23 -6 -9 -3 -13 -29 -13 -79 0 -64 -2 -74 -17 -74 -11 0 -31 23 -53 61
l-35 61 -3 -47 c-2 -26 2 -53 9 -61 9 -11 7 -14 -12 -14 -23 0 -24 2 -24 80
l0 80 28 0 c22 0 33 -10 58 -50z m189 23 c0 -16 -4 -23 -8 -17 -4 6 -17 16
-29 23 -21 11 -23 10 -23 -19 0 -26 4 -30 26 -30 14 0 23 -4 20 -9 -3 -5 -15
-7 -26 -4 -17 5 -20 0 -20 -32 l0 -37 35 21 35 20 0 -24 c0 -24 -3 -25 -57
-25 l-58 0 0 80 0 80 53 0 c50 0 52 -1 52 -27z m138 15 c9 -9 12 -9 12 0 0 8
22 12 70 12 68 0 70 -1 70 -25 l0 -26 -22 21 -23 21 -3 -67 c-2 -47 1 -70 10
-75 8 -5 -5 -8 -32 -8 -25 0 -39 3 -32 6 8 3 12 28 12 76 l0 70 -25 -23 c-16
-15 -25 -19 -25 -10 0 11 -3 11 -12 2 -10 -10 -16 -8 -30 10 -18 23 -19 23
-33 4 -19 -25 -19 -80 0 -96 9 -7 27 -10 45 -6 34 6 38 -1 13 -20 -26 -20 -70
-17 -93 6 -27 27 -27 89 0 118 23 24 78 30 98 10z"/>
<path d="M706 1245 c-10 -28 -7 -45 9 -45 12 0 14 7 9 28 -9 35 -10 36 -18 17z"/>
<path d="M1740 1232 c0 -51 12 -72 42 -72 15 0 18 8 18 48 0 51 -12 72 -42 72
-15 0 -18 -8 -18 -48z"/>
<path d="M1786 1078 c-18 -26 -21 -84 -5 -93 5 -4 88 -8 184 -9 148 -1 176 -4
193 -19 10 -9 24 -17 30 -17 10 0 52 51 52 64 0 14 -28 -8 -38 -30 -13 -27
-32 -32 -32 -8 0 9 5 12 13 8 9 -5 9 -4 1 5 -6 7 -35 13 -63 14 -28 1 -51 5
-51 10 0 4 0 12 0 17 0 6 7 10 15 10 8 0 15 -7 15 -16 0 -14 3 -14 15 -4 29
24 -2 32 -132 34 -78 1 -136 6 -149 13 -26 15 -34 8 -34 -29 0 -32 3 -33 33
-13 23 15 81 16 104 2 6 -4 14 -3 18 2 9 15 45 8 45 -8 0 -11 4 -10 16 5 15
19 16 19 10 -1 -6 -19 -5 -19 8 -2 17 22 22 22 22 -3 0 -16 -7 -20 -33 -20
-20 0 -33 5 -33 13 0 8 -4 7 -10 -3 -9 -13 -10 -13 -10 0 0 10 -3 11 -8 4 -9
-14 -85 -17 -77 -4 3 6 1 10 -4 10 -6 0 -11 -4 -11 -9 0 -6 -19 -9 -42 -8 -37
2 -43 5 -46 26 -2 13 6 36 17 52 12 16 17 29 12 29 -5 0 -17 -10 -25 -22z"/>
<path d="M814 1066 c-17 -6 -29 -17 -26 -24 2 -6 8 -10 13 -6 5 3 9 -3 10 -13
0 -14 3 -12 12 7 13 28 54 43 44 16 -4 -9 -4 -23 0 -32 5 -14 9 -13 25 7 l20
24 -6 -25 c-4 -22 -4 -23 8 -7 15 19 36 23 36 6 0 -8 5 -8 15 1 23 19 18 25
-24 25 -23 1 -48 8 -59 18 -21 19 -24 19 -68 3z"/>
<path d="M1480 1069 c0 -6 6 -9 13 -6 6 2 22 0 34 -4 13 -5 25 -4 28 2 11 17
25 -1 25 -32 0 -16 5 -29 10 -29 6 0 10 6 10 14 0 8 5 18 12 22 8 5 9 0 6 -14
-7 -24 6 -30 19 -9 4 8 18 16 31 20 20 5 22 2 16 -16 l-7 -22 23 20 c16 14 24
16 27 7 3 -6 9 -10 14 -6 5 3 9 1 9 -4 0 -15 -19 -19 -102 -21 l-78 -2 0 30
c0 40 -19 40 -26 1 -4 -16 -10 -30 -14 -30 -3 0 -5 14 -2 30 3 18 0 30 -7 30
-6 0 -11 -8 -11 -17 0 -10 -5 -25 -11 -33 -8 -11 -9 -7 -5 17 4 25 2 31 -9 26
-19 -7 -19 -37 -1 -52 21 -18 239 -20 259 -2 10 7 17 18 17 23 0 16 -74 41
-116 39 -27 -2 -45 3 -53 13 -16 19 -111 23 -111 5z"/>
<path d="M2126 1039 c3 -6 15 -8 26 -6 15 4 18 1 13 -16 -6 -21 -6 -22 9 -3 9
11 16 15 16 10 0 -6 7 -11 15 -11 23 0 18 24 -7 31 -38 10 -80 7 -72 -5z"/>
<path d="M830 1015 c-10 -26 -26 -33 -32 -14 -2 7 -9 5 -17 -5 -14 -17 -12
-17 154 -21 33 0 69 8 83 20 2 2 -2 13 -8 25 -10 18 -14 20 -21 9 -12 -19 -11
-32 1 -24 6 3 10 1 10 -4 0 -6 -13 -11 -30 -11 -17 0 -30 5 -30 12 0 9 -3 9
-12 0 -16 -16 -68 -15 -68 1 0 8 -4 7 -11 -3 -8 -12 -10 -9 -6 13 5 34 0 35
-13 2z"/>
</g>
</svg>
